<?xml version="1.0" standalone="no"?>
<!DOCTYPE svg PUBLIC "-//W3C//DTD SVG 20010904//EN"
 "http://www.w3.org/TR/2001/REC-SVG-20010904/DTD/svg10.dtd">
<svg version="1.0" xmlns="http://www.w3.org/2000/svg"
 width="100.000000pt" height="100.000000pt" viewBox="0 0 100.000000 100.000000"
 preserveAspectRatio="xMidYMid meet">
<metadata>
Created by potrace 1.11, written by Peter Selinger 2001-2013
</metadata>
<g transform="translate(0.000000,100.000000) scale(0.100000,-0.100000)"
fill="#000000" stroke="none">
<path d="M243 788 c-6 -8 -9 -111 -9 -248 1 -214 3 -238 21 -268 35 -58 78
-71 243 -71 124 0 151 3 184 20 51 26 75 76 75 157 0 69 3 74 35 77 39 2 66
15 81 38 35 54 31 169 -7 214 -14 16 -36 26 -63 30 -35 5 -42 9 -47 34 l-6 29
-249 0 c-187 0 -251 -3 -258 -12z m591 -120 c10 -13 16 -43 16 -73 0 -63 -20
-95 -61 -95 -16 0 -29 3 -30 8 -1 15 -1 138 0 160 1 31 53 31 75 0z"/>
</g>
</svg>
